PathFileType	4	(X/Y/Z)	C:/Users/opensim2020/Desktop/walking_exp_matlab/subject01_walking15_straight_03.trc	
DataRate	CameraRate	NumFrames	NumMarkers	Units	OrigDataRate	OrigDataStartFrame	OrigNumFrames	
100.00	100.00	7	43	mm	100.00	1672	145	
Frame#	Time	LFHD			RFHD			LBHD			RBHD			C7			T10			CLAV			STRN			RBAK			LSHO			LUPA			LELB			LFRM			LWRA			LWRB			LFIN			RSHO			RUPA			RELB			RFRM			RWRA			RWRB			RFIN			LASI			RASI			LPSI			RPSI			LTHI			LKNE			LTIB			LANK			LHEE			LTOE			RTHI			RKNE			RTIB			RANK			RHEE			RTOE			*39			*40			*41			*42			
		X1	Y1	Z1	X2	Y2	Z2	X3	Y3	Z3	X4	Y4	Z4	X5	Y5	Z5	X6	Y6	Z6	X7	Y7	Z7	X8	Y8	Z8	X9	Y9	Z9	X10	Y10	Z10	X11	Y11	Z11	X12	Y12	Z12	X13	Y13	Z13	X14	Y14	Z14	X15	Y15	Z15	X16	Y16	Z16	X17	Y17	Z17	X18	Y18	Z18	X19	Y19	Z19	X20	Y20	Z20	X21	Y21	Z21	X22	Y22	Z22	X23	Y23	Z23	X24	Y24	Z24	X25	Y25	Z25	X26	Y26	Z26	X27	Y27	Z27	X28	Y28	Z28	X29	Y29	Z29	X30	Y30	Z30	X31	Y31	Z31	X32	Y32	Z32	X33	Y33	Z33	X34	Y34	Z34	X35	Y35	Z35	X36	Y36	Z36	X37	Y37	Z37	X38	Y38	Z38	X39	Y39	Z39	X40	Y40	Z40	X41	Y41	Z41	X42	Y42	Z42	X43	Y43	Z43	

73	0.720	1434.99915	92.27424	1648.25989	1542.24158	127.41766	1656.55176	1467.80457	-20.54520	1607.80811	1582.10229	14.19698	1615.15454	1498.98108	-52.08188	1413.36218	1505.34058	-92.57655	1119.31921	1503.85815	92.23232	1345.71802	1500.17749	132.46187	1189.26489	1568.64282	-113.28724	1220.88513	1342.36646	34.14947	1380.24402	1251.86157	1.74272	1201.89160	1235.64514	0.85978	1049.03101	1223.37195	109.01093	997.95166	1258.05432	242.01184	985.07922	1228.81262	215.09340	940.14044	1225.42908	299.89114	937.48865	1651.55066	19.29757	1381.14941	1735.84424	-95.79188	1202.50159	1744.36694	-118.90911	1082.68542	1780.36926	-142.81396	968.71356	1770.13147	-120.62505	826.26721	1807.27136	-159.32294	848.98114	1811.58594	-159.15726	761.15302	1396.76611	73.40726	909.11627	1609.54761	87.80642	921.75513	1461.39343	-108.10490	921.12250	1607.39697	-97.62218	925.38348	1344.97925	-9.57912	576.32098	1354.37244	-49.60036	446.07074	1352.81689	-201.36800	330.96793	1403.75146	-355.59882	173.01897	1460.85425	-395.10995	189.51144	1414.54480	-306.14072	34.21165	1672.70618	132.47266	602.44348	1641.10950	191.60321	456.64972	1655.62427	164.41173	280.22064	1610.29858	157.44295	75.06685	1563.64490	106.56531	36.05637	1604.96350	297.34369	38.69641	1521.91943	113.59116	1690.29041	-3101.97095	1973.18555	1023.46814	-3140.67163	2012.54272	1022.04816			 
74	0.730	1436.83252	104.62579	1649.40308	1543.99133	140.08641	1657.46863	1469.97839	-8.03636	1608.56262	1584.13501	27.16524	1615.64246	1500.57922	-39.01450	1414.12415	1505.29639	-80.36895	1120.48450	1504.96069	105.58691	1346.78174	1500.78540	145.97766	1190.41626	1569.57739	-99.59140	1221.40771	1343.78906	47.24125	1381.39294	1252.93372	13.40321	1203.43542	1236.59338	11.14427	1050.68811	1223.84668	117.88751	997.19720	1258.10559	250.63016	980.39429	1228.92896	222.77304	936.22308	1225.27893	306.99869	931.33490	1652.81421	33.02155	1381.93359	1737.82605	-79.84826	1202.13342	1746.17798	-101.99574	1082.07593	1782.05054	-123.94062	967.64099	1771.26599	-100.11624	825.41455	1808.69019	-138.64397	847.54901	1813.05115	-137.00241	759.77466	1398.35706	87.15669	909.99457	1610.73462	101.16140	923.22913	1461.90930	-94.55711	921.87775	1607.87073	-84.09438	927.34503	1344.72412	11.10742	575.52509	1352.87073	-25.86965	444.85172	1351.28540	-179.68489	333.92609	1401.04248	-338.08334	179.73454	1457.75525	-376.03571	199.95447	1414.52795	-299.94760	37.99558	1673.78479	145.03331	602.76166	1641.51880	201.07175	454.77698	1656.32678	169.60191	279.57568	1609.77576	158.11479	74.89188	1563.50049	107.15247	35.47720	1604.72449	297.77225	38.07759	1523.95886	125.88610	1691.15063	-3101.99438	1973.01685	1023.44287	-3140.61011	2012.54834	1022.08215			 
75	0.740	1438.52478	117.06274	1650.58386	1545.58447	152.87210	1658.39160	1471.92383	4.64184	1609.30432	1585.98254	40.18085	1616.12207	1502.15039	-26.00087	1414.89758	1505.77600	-67.21989	1121.37878	1505.82776	118.84980	1347.78589	1501.17273	159.27600	1191.42798	1570.62244	-85.90026	1221.98767	1345.04907	60.09970	1382.60254	1253.85132	25.28192	1204.89258	1237.87988	21.16855	1052.50220	1224.58948	126.51463	996.09088	1258.04858	258.76013	975.08386	1228.92029	229.46359	931.93988	1225.01550	313.45953	923.91876	1653.99182	46.89244	1382.84351	1739.67883	-63.83224	1201.84167	1747.98169	-84.93432	1081.63599	1783.73901	-104.70079	966.66571	1772.48706	-78.22101	824.96210	1810.22998	-116.96950	846.34290	1814.47668	-113.94009	758.54810	1399.50146	100.65138	911.01740	1611.84070	114.20916	924.52948	1462.65808	-81.24502	922.65759	1608.54431	-70.68234	928.99963	1344.63232	31.62125	574.96246	1351.41211	-1.73446	443.69754	1349.52820	-156.60385	336.14722	1399.36157	-319.20932	186.67822	1454.51355	-356.43518	210.53873	1415.76648	-289.21973	43.36446	1674.35742	154.93901	602.39893	1642.19263	209.56288	453.31503	1656.46350	174.00578	279.34348	1609.67468	158.52216	74.90388	1563.78235	106.86743	35.89458	1604.53809	297.99286	37.74776	1525.87854	138.27357	1691.96973	-3102.05933	1972.95166	1023.96484	-3140.71362	2012.44824	1022.11591			 
76	0.750	1440.09485	129.67613	1651.81799	1547.02014	165.70999	1659.36560	1473.69641	17.27098	1610.28516	1587.62793	53.21266	1616.72595	1503.58179	-13.01284	1415.77271	1506.40955	-54.22796	1122.48132	1506.45044	132.00232	1348.80884	1501.37671	172.38129	1192.40479	1571.93054	-72.47692	1222.78564	1346.07776	72.62691	1383.82458	1254.75745	37.20682	1206.32104	1239.36475	30.98272	1053.95203	1225.14282	134.65596	994.58899	1257.86230	266.29633	969.15649	1228.91907	235.63588	927.24872	1224.62134	319.17416	916.13336	1654.88123	60.77401	1383.81702	1741.55200	-47.62614	1201.80750	1749.77222	-67.73643	1081.20178	1785.32458	-85.17930	965.58185	1774.29028	-55.11934	825.13397	1811.70276	-94.94446	845.04041	1815.77100	-90.01290	757.35309	1400.42761	114.40961	912.43207	1612.77075	126.97000	925.71466	1463.55103	-68.16237	923.49261	1609.19568	-57.65566	930.34662	1344.15759	51.98959	574.31897	1350.02136	22.59834	442.60550	1347.40564	-132.64447	337.51990	1398.83704	-298.88617	194.19931	1452.66101	-336.17078	219.89450	1415.92188	-273.92496	49.43201	1674.91382	162.65836	601.70300	1643.24170	216.97249	452.50305	1656.50427	177.99026	279.21417	1609.59180	158.70052	75.00177	1563.75171	106.82415	36.12459	1604.33984	298.21075	37.53593	1527.45349	150.81995	1692.86597	-3101.95044	1973.09253	1023.51843	-3140.68970	2012.54272	1022.15686			 
77	0.760	1441.42090	142.26862	1653.24512	1548.32410	178.71275	1660.43323	1475.23730	30.12034	1611.40869	1589.10828	66.34762	1617.54968	1504.93140	-0.01444	1416.91431	1507.17590	-41.20825	1123.62927	1506.91211	145.04057	1349.97070	1501.46655	185.28889	1193.42798	1573.47852	-59.20842	1223.84326	1346.85803	84.97949	1385.06116	1255.41003	48.99189	1207.73108	1240.90271	40.62500	1055.35571	1225.72168	142.26100	992.72028	1257.67505	273.51187	962.99341	1228.84485	241.03726	922.06940	1224.13818	324.19211	907.81433	1655.69910	74.72005	1384.85718	1743.42957	-31.32352	1201.84595	1751.53149	-50.47528	1080.88757	1786.98999	-65.28459	964.67529	1775.04614	-32.48238	824.77856	1813.08643	-72.12951	843.88770	1817.03735	-65.19955	756.38458	1400.62488	126.46743	913.34033	1613.62878	139.55170	926.72253	1464.45349	-55.31271	924.31525	1609.88818	-45.00536	931.50586	1343.56055	71.96652	574.36963	1348.80164	46.81895	442.03488	1345.22119	-108.43505	338.68332	1399.16077	-278.29907	201.48289	1452.75879	-315.97363	227.17543	1416.12146	-254.70625	55.92721	1675.52283	169.41708	600.83435	1644.33508	223.11198	451.91034	1655.95508	180.80574	278.49649	1609.47461	158.80591	75.15694	1563.67651	107.12956	36.21085	1604.42859	298.33411	37.21968	1528.86328	163.68314	1693.94348	-3101.83667	1973.16809	1023.59900	-3140.75684	2012.51208	1022.10254			 
78	0.770	1442.60632	155.10417	1654.69250	1549.40784	191.85201	1661.55139	1476.59387	43.03696	1612.76367	1590.39294	79.61942	1618.55518	1506.02588	12.91195	1418.24646	1508.16577	-28.30198	1124.97314	1507.09326	157.96947	1351.20142	1501.39966	198.10158	1194.53113	1575.19019	-46.04915	1225.20374	1347.42126	97.16032	1386.33618	1256.14954	60.58441	1209.21191	1242.25391	50.13335	1056.50769	1226.32178	149.32098	990.31458	1257.18274	279.96616	956.15808	1228.82959	245.88663	916.52563	1223.48425	328.34390	899.04437	1656.32971	88.73936	1385.94141	1745.20654	-14.98560	1201.97778	1753.28259	-33.16210	1080.60449	1788.56665	-44.90907	963.78156	1775.81458	-9.08747	824.79987	1814.14819	-48.72726	842.74127	1818.18958	-39.44915	755.87469	1401.46997	140.01384	915.28619	1614.38025	152.03864	927.63000	1465.24719	-42.60126	925.06091	1610.63867	-32.64835	932.93469	1342.85193	91.96652	575.00714	1347.73132	70.80614	442.22168	1343.63367	-84.39000	339.80853	1400.36279	-256.66064	207.52882	1454.36499	-294.62204	232.74512	1415.93738	-232.77425	61.89857	1674.85449	174.45174	599.02179	1645.41931	228.48666	450.93329	1656.85461	183.84334	278.82138	1609.37207	159.04269	75.25699	1563.46973	106.76820	36.93665	1604.44019	298.43661	36.97095	1530.05176	176.70192	1695.17126	-3101.99170	1973.11670	1023.56720	-3140.77710	2012.54968	1022.12030			 
79	0.780	1443.49548	167.97836	1656.14844	1550.18506	205.11324	1662.71875	1477.79272	55.95543	1614.25073	1591.44092	92.91072	1619.75220	1507.06165	25.94781	1419.76575	1509.20776	-15.49808	1126.36084	1507.20898	170.83397	1352.53687	1501.22266	210.81355	1195.72778	1576.91687	-33.05809	1226.80322	1347.89697	109.29543	1387.69653	1256.80701	71.67614	1210.60706	1243.95667	59.52105	1057.59204	1227.02026	156.13448	987.77600	1256.67188	285.89737	949.11420	1228.85962	250.08510	910.67688	1222.76489	331.77264	890.09155	1656.88501	102.76685	1387.13098	1747.10303	1.53202	1202.38782	1755.09790	-15.68056	1080.62915	1790.08105	-24.37239	963.02948	1776.44324	14.53828	825.10077	1815.27051	-24.89045	841.81561	1818.93677	-13.64754	754.95947	1401.20898	151.95100	916.42212	1615.08813	164.30493	928.53479	1465.66699	-30.13527	925.87775	1610.82422	-20.61041	934.13245	1342.10303	112.01489	576.33539	1346.73877	94.59898	443.15240	1343.05432	-60.47073	341.21527	1401.86633	-233.67982	212.19327	1456.28247	-271.40695	237.04436	1415.65906	-208.89706	66.54351	1675.20605	180.87778	598.58228	1646.36023	233.18890	449.78790	1657.59363	185.98488	278.46344	1609.18982	159.26851	75.25329	1563.21948	106.81273	37.06009	1604.39026	298.54047	36.90316	1531.06628	190.00978	1696.47083	-3101.77710	1973.21338	1023.48309	-3140.75977	2012.41541	1021.99622			 
